<svg width="26" height="27" viewBox="0 0 26 27" fill="none" xmlns="http://www.w3.org/2000/svg">
<path d="M6.39509 2.1529C8.37054 1.00335 10.5246 0.42857 12.8571 0.42857C15.1897 0.42857 17.3382 1.00335 19.3025 2.1529C21.2779 3.30245 22.8404 4.86495 23.99 6.8404C25.1395 8.80469 25.7143 10.9531 25.7143 13.2857C25.7143 15.6183 25.1395 17.7723 23.99 19.7478C22.8404 21.7121 21.2779 23.269 19.3025 24.4185C17.3382 25.5681 15.1897 26.1429 12.8571 26.1429C10.5246 26.1429 8.37054 25.5681 6.39509 24.4185C4.4308 23.269 2.87388 21.7121 1.72433 19.7478C0.574777 17.7723 0 15.6183 0 13.2857C0 10.9531 0.574777 8.80469 1.72433 6.8404C2.87388 4.86495 4.4308 3.30245 6.39509 2.1529ZM17.4442 9.15067C17.4219 9.16183 17.3661 9.21763 17.2768 9.31808C17.1987 9.40737 17.1261 9.45759 17.0592 9.46875C17.0815 9.46875 17.1038 9.44085 17.1261 9.38504C17.1596 9.32924 17.1875 9.26786 17.2098 9.20089C17.2433 9.13393 17.2656 9.09487 17.2768 9.0837C17.3438 9.00558 17.4665 8.92187 17.6451 8.83259C17.8013 8.76562 18.0915 8.69866 18.5156 8.6317C18.8951 8.54241 19.1797 8.60379 19.3694 8.81585C19.3471 8.79353 19.3973 8.72098 19.5201 8.59821C19.654 8.47545 19.7377 8.40848 19.7712 8.39732C19.8047 8.375 19.8884 8.35268 20.0223 8.33036C20.1563 8.29687 20.24 8.25223 20.2734 8.19643L20.3069 7.82812C20.173 7.83929 20.0725 7.80022 20.0056 7.71094C19.9498 7.62165 19.9163 7.50446 19.9051 7.35938C19.9051 7.3817 19.8717 7.42634 19.8047 7.4933C19.8047 7.41518 19.7768 7.37054 19.721 7.35938C19.6763 7.34821 19.615 7.35379 19.5368 7.37612C19.4587 7.39844 19.4085 7.40402 19.3862 7.39286C19.2746 7.35937 19.1908 7.32031 19.135 7.27567C19.0792 7.21987 19.0346 7.125 19.0011 6.99107C18.9676 6.85714 18.9453 6.77344 18.9342 6.73995C18.9118 6.68415 18.856 6.62277 18.7667 6.5558C18.6886 6.48884 18.6384 6.43303 18.6161 6.38839C18.6049 6.36607 18.5882 6.33817 18.5658 6.30469C18.5547 6.26004 18.5379 6.22098 18.5156 6.1875C18.5045 6.15402 18.4821 6.12612 18.4487 6.10379C18.4263 6.07031 18.3984 6.05357 18.365 6.05357C18.3315 6.05357 18.2924 6.08147 18.2478 6.13728C18.2031 6.19308 18.1585 6.24888 18.1138 6.30469C18.0804 6.36049 18.058 6.38839 18.0469 6.38839C18.0134 6.36607 17.9799 6.36049 17.9464 6.37165C17.9129 6.37165 17.885 6.37723 17.8627 6.38839C17.8516 6.38839 17.8292 6.40513 17.7958 6.43862C17.7623 6.46094 17.7344 6.47768 17.7121 6.48884C17.6786 6.51116 17.6283 6.5279 17.5614 6.53906C17.5056 6.55022 17.4609 6.56138 17.4275 6.57254C17.5949 6.51674 17.5893 6.45536 17.4107 6.38839C17.2991 6.34375 17.2098 6.32701 17.1429 6.33817C17.2433 6.29353 17.2824 6.22656 17.26 6.13728C17.2489 6.04799 17.2042 5.96986 17.1261 5.9029H17.2098C17.1987 5.85826 17.1484 5.81362 17.0592 5.76897C16.981 5.71317 16.8862 5.66295 16.7746 5.6183C16.6629 5.57366 16.5904 5.54018 16.5569 5.51786C16.4676 5.46205 16.2779 5.41183 15.9877 5.36719C15.6975 5.31138 15.5134 5.3058 15.4353 5.35045C15.3795 5.41741 15.3516 5.47879 15.3516 5.5346C15.3627 5.57924 15.385 5.65737 15.4185 5.76897C15.4632 5.86942 15.4855 5.93638 15.4855 5.96987C15.4967 6.03683 15.4632 6.10938 15.385 6.1875C15.3181 6.26562 15.2846 6.33259 15.2846 6.38839C15.2846 6.46652 15.3627 6.5558 15.519 6.65625C15.6752 6.74554 15.731 6.86272 15.6864 7.00781C15.6529 7.0971 15.5636 7.18638 15.4185 7.27567C15.2734 7.36495 15.1842 7.43192 15.1507 7.47656C15.0949 7.56585 15.0837 7.67187 15.1172 7.79464C15.1618 7.90625 15.2232 7.99554 15.3013 8.0625C15.3237 8.08482 15.3292 8.10714 15.3181 8.12946C15.3181 8.15178 15.3013 8.17969 15.2679 8.21317C15.2344 8.23549 15.2009 8.25781 15.1674 8.28013C15.1451 8.29129 15.1116 8.30804 15.067 8.33036L15.0167 8.36384C14.894 8.41964 14.7768 8.38616 14.6652 8.26339C14.5647 8.14062 14.4922 7.99554 14.4475 7.82812C14.3694 7.54911 14.2801 7.3817 14.1797 7.32589C13.923 7.23661 13.7612 7.24219 13.6942 7.34263C13.6384 7.19754 13.4096 7.05246 13.0078 6.90737C12.7288 6.80692 12.4051 6.7846 12.0368 6.8404C12.1038 6.82924 12.1038 6.74553 12.0368 6.58928C11.9587 6.42187 11.8527 6.35491 11.7188 6.38839C11.7522 6.32143 11.7746 6.22656 11.7857 6.10379C11.7969 5.96987 11.8025 5.89174 11.8025 5.86942C11.8359 5.72433 11.9029 5.59598 12.0033 5.48438C12.0145 5.47321 12.0536 5.42857 12.1205 5.35045C12.1875 5.26116 12.2377 5.18303 12.2712 5.11607C12.3158 5.04911 12.3214 5.01562 12.2879 5.01562C12.6786 5.06027 12.9576 4.99888 13.125 4.83147C13.1808 4.77567 13.2422 4.6808 13.3092 4.54688C13.3873 4.41295 13.4487 4.31808 13.4933 4.26228C13.5938 4.19531 13.6719 4.16741 13.7277 4.17857C13.7835 4.17857 13.8616 4.20647 13.9621 4.26228C14.0737 4.31808 14.1574 4.34598 14.2132 4.34598C14.3694 4.35714 14.4531 4.29576 14.4643 4.16183C14.4866 4.0279 14.4475 3.91629 14.3471 3.82701C14.481 3.83817 14.4978 3.7433 14.3973 3.54241C14.3527 3.46428 14.308 3.41406 14.2634 3.39174C14.1295 3.3471 13.9788 3.375 13.8114 3.47545C13.7221 3.52009 13.7333 3.56473 13.8449 3.60937C13.8337 3.59821 13.7779 3.6596 13.6775 3.79353C13.5882 3.91629 13.4989 4.01116 13.4096 4.07812C13.3203 4.14509 13.231 4.11719 13.1417 3.99442C13.1306 3.98326 13.0971 3.91071 13.0413 3.77678C12.9967 3.6317 12.9464 3.55357 12.8906 3.54241C12.8013 3.54241 12.7121 3.62611 12.6228 3.79353C12.6563 3.70424 12.5949 3.62053 12.4386 3.54241C12.2824 3.46428 12.1484 3.41964 12.0368 3.40848C12.2489 3.27455 12.2042 3.12388 11.9029 2.95647C11.8248 2.91183 11.7076 2.88393 11.5513 2.87277C11.4063 2.86161 11.3002 2.88393 11.2333 2.93973C11.1775 3.01786 11.144 3.08482 11.1328 3.14062C11.1328 3.18527 11.1607 3.22991 11.2165 3.27455C11.2835 3.30804 11.3449 3.33594 11.4007 3.35826C11.4565 3.38058 11.5179 3.4029 11.5848 3.42522C11.6629 3.44754 11.7132 3.46428 11.7355 3.47545C11.8917 3.58705 11.9364 3.66518 11.8694 3.70982C11.8471 3.72098 11.7969 3.7433 11.7188 3.77678C11.6518 3.79911 11.5904 3.82143 11.5346 3.84375C11.4788 3.86607 11.4453 3.88839 11.4342 3.91071C11.4007 3.95536 11.4007 4.03348 11.4342 4.14509C11.4676 4.2567 11.4565 4.33482 11.4007 4.37946C11.3449 4.32366 11.2946 4.22879 11.25 4.09487C11.2054 3.94978 11.1663 3.85491 11.1328 3.81027C11.2109 3.91071 11.0714 3.9442 10.7143 3.91071L10.5469 3.89397C10.5022 3.89397 10.4129 3.90513 10.279 3.92745C10.1451 3.94978 10.0279 3.95536 9.92746 3.9442C9.83817 3.93303 9.76563 3.88839 9.70982 3.81027C9.66518 3.72098 9.66518 3.60937 9.70982 3.47545C9.72098 3.4308 9.7433 3.41964 9.77679 3.44196C9.73214 3.40848 9.67076 3.35826 9.59263 3.29129C9.51451 3.21317 9.45871 3.16295 9.42522 3.14062C8.91183 3.30803 8.38728 3.53683 7.85156 3.82701C7.91853 3.83817 7.98549 3.83259 8.05246 3.81027C8.10826 3.78795 8.1808 3.75446 8.27009 3.70982C8.35938 3.65402 8.41518 3.62053 8.4375 3.60937C8.81696 3.45312 9.05134 3.41406 9.14062 3.49219L9.22433 3.40848C9.38058 3.58705 9.49219 3.72656 9.55915 3.82701C9.48103 3.78236 9.31362 3.77678 9.05692 3.81027C8.83371 3.87723 8.71094 3.9442 8.68862 4.01116C8.76674 4.14509 8.79464 4.24554 8.77232 4.3125C8.72768 4.27902 8.66071 4.22321 8.57143 4.14509C8.4933 4.06696 8.41518 4.00558 8.33705 3.96094C8.25893 3.91629 8.17522 3.88839 8.08594 3.87723C7.90737 3.87723 7.7846 3.88281 7.71763 3.89397C6.08817 4.78683 4.77679 6.02567 3.78348 7.61049C3.86161 7.68862 3.92857 7.73326 3.98438 7.74442C4.02902 7.75558 4.05692 7.8058 4.06808 7.89509C4.07924 7.98437 4.0904 8.04576 4.10156 8.07924C4.12388 8.11272 4.19085 8.09598 4.30246 8.02902C4.4029 8.1183 4.41964 8.22433 4.35268 8.3471C4.36384 8.33594 4.60938 8.48661 5.08929 8.79911C5.30134 8.98884 5.41853 9.10603 5.44085 9.15067C5.47433 9.27344 5.41853 9.37388 5.27344 9.45201C5.26228 9.42969 5.21205 9.37946 5.12277 9.30134C5.03348 9.22321 4.98326 9.20089 4.9721 9.23437C4.93862 9.29018 4.93862 9.3962 4.9721 9.55245C5.01674 9.69754 5.07813 9.76451 5.15625 9.75335C5.07813 9.75335 5.02232 9.84263 4.98884 10.0212C4.96652 10.1998 4.95536 10.4007 4.95536 10.6239C4.95536 10.8359 4.94978 10.9643 4.93862 11.0089L4.9721 11.0257C4.93862 11.1596 4.96652 11.3549 5.0558 11.6116C5.15625 11.8571 5.27902 11.9632 5.42411 11.9297C5.27902 11.9632 5.39063 12.2031 5.75893 12.6496C5.82589 12.7388 5.87054 12.7891 5.89286 12.8002C5.92634 12.8225 5.9933 12.8672 6.09375 12.9342C6.1942 12.99 6.2779 13.0458 6.34487 13.1016C6.41183 13.1462 6.46763 13.202 6.51228 13.269C6.55692 13.3248 6.61272 13.4531 6.67969 13.654C6.74665 13.8437 6.82478 13.9721 6.91406 14.0391C6.89174 14.106 6.94196 14.2176 7.06473 14.3739C7.19866 14.5301 7.26005 14.6585 7.24888 14.7589C7.23772 14.7589 7.22098 14.7645 7.19866 14.7757C7.1875 14.7868 7.17634 14.7924 7.16518 14.7924C7.19866 14.8705 7.28237 14.9487 7.41629 15.0268C7.56138 15.1049 7.65067 15.1775 7.68415 15.2444C7.69531 15.2779 7.70647 15.3337 7.71763 15.4118C7.72879 15.49 7.74554 15.5513 7.76786 15.596C7.79018 15.6406 7.83482 15.6518 7.90179 15.6295C7.92411 15.4062 7.79018 15.0603 7.5 14.5915C7.33259 14.3125 7.23772 14.1507 7.2154 14.106C7.18192 14.0502 7.14844 13.9665 7.11496 13.8549C7.09263 13.7321 7.07031 13.6484 7.04799 13.6038C7.07031 13.6038 7.10379 13.615 7.14844 13.6373C7.19308 13.6484 7.23772 13.6652 7.28237 13.6875C7.33817 13.7098 7.38281 13.7321 7.41629 13.7545C7.44978 13.7768 7.46094 13.7935 7.44978 13.8047C7.41629 13.8828 7.42746 13.9833 7.48326 14.106C7.53906 14.2176 7.60603 14.3181 7.68415 14.4074C7.76228 14.4967 7.85714 14.6027 7.96875 14.7254C8.08036 14.8482 8.14732 14.9208 8.16964 14.9431C8.23661 15.01 8.31473 15.1217 8.40402 15.2779C8.4933 15.423 8.4933 15.4955 8.40402 15.4955C8.50446 15.4955 8.61607 15.5569 8.73884 15.6797C8.86161 15.7913 8.95647 15.8973 9.02344 15.9978C9.07924 16.0871 9.12388 16.2321 9.15737 16.433C9.19085 16.6339 9.21875 16.7679 9.24107 16.8348C9.26339 16.9129 9.30804 16.9911 9.375 17.0692C9.45312 17.1362 9.52567 17.1864 9.59263 17.2199C9.6596 17.2533 9.74888 17.298 9.86049 17.3538C9.9721 17.4096 10.0446 17.4487 10.0781 17.471C10.1339 17.4933 10.2344 17.5547 10.3795 17.6551C10.5357 17.7444 10.6585 17.8058 10.7478 17.8393C10.8594 17.8839 10.9487 17.9062 11.0156 17.9062C11.0826 17.9062 11.1607 17.8951 11.25 17.8728C11.3504 17.8393 11.4286 17.817 11.4844 17.8058C11.6518 17.7835 11.8136 17.8672 11.9699 18.0569C12.1261 18.2467 12.2433 18.3638 12.3214 18.4085C12.7232 18.6205 13.0301 18.6819 13.2422 18.5926C13.2199 18.6038 13.2199 18.6484 13.2422 18.7266C13.2757 18.7935 13.3203 18.8772 13.3761 18.9777C13.4431 19.0781 13.4933 19.1618 13.5268 19.2288C13.5714 19.2846 13.6049 19.3292 13.6272 19.3627C13.683 19.4297 13.7835 19.5134 13.9286 19.6138C14.0737 19.7143 14.1741 19.798 14.2299 19.865C14.2969 19.8203 14.3359 19.7701 14.3471 19.7143C14.3136 19.8036 14.3527 19.9152 14.4643 20.0491C14.5759 20.183 14.6763 20.2388 14.7656 20.2165C14.9219 20.183 15 20.0045 15 19.6808C14.654 19.8482 14.3806 19.7478 14.1797 19.3795C14.1797 19.3683 14.1629 19.3404 14.1295 19.2958C14.1071 19.24 14.0848 19.1897 14.0625 19.1451C14.0513 19.1004 14.0402 19.0558 14.029 19.0112C14.0179 18.9554 14.0179 18.9107 14.029 18.8772C14.0402 18.8437 14.0681 18.827 14.1127 18.827C14.2132 18.827 14.269 18.8103 14.2801 18.7768C14.2913 18.7321 14.2801 18.6596 14.2467 18.5592C14.2132 18.4587 14.1908 18.3862 14.1797 18.3415C14.1685 18.2522 14.1071 18.1406 13.9955 18.0067C13.8839 17.8728 13.817 17.7891 13.7946 17.7556C13.7388 17.856 13.6496 17.9007 13.5268 17.8895C13.404 17.8783 13.3147 17.8281 13.2589 17.7388C13.2589 17.75 13.2478 17.7835 13.2254 17.8393C13.2143 17.8839 13.2087 17.9174 13.2087 17.9397C13.0636 17.9397 12.9799 17.9342 12.9576 17.923C12.9688 17.8895 12.9799 17.7946 12.9911 17.6384C13.0134 17.471 13.0357 17.3426 13.058 17.2533C13.0692 17.2087 13.0971 17.1417 13.1417 17.0525C13.1975 16.9632 13.2422 16.885 13.2757 16.8181C13.3092 16.74 13.3315 16.6674 13.3426 16.6004C13.3538 16.5335 13.3259 16.4833 13.2589 16.4498C13.2031 16.4051 13.1083 16.3884 12.9743 16.3996C12.7623 16.4107 12.6172 16.5223 12.5391 16.7344C12.5279 16.7679 12.5112 16.8292 12.4888 16.9185C12.4665 16.9967 12.4386 17.058 12.4051 17.1027C12.3717 17.1473 12.3214 17.1864 12.2545 17.2199C12.1763 17.2533 12.0424 17.2645 11.8527 17.2533C11.6629 17.2422 11.529 17.2143 11.4509 17.1696C11.3058 17.0804 11.1775 16.9185 11.0658 16.6842C10.9654 16.4498 10.9152 16.2433 10.9152 16.0647C10.9152 15.9531 10.9263 15.808 10.9487 15.6295C10.9821 15.4397 10.9989 15.3002 10.9989 15.2109C11.01 15.1105 10.9821 14.971 10.9152 14.7924C10.9487 14.7701 10.9989 14.7199 11.0658 14.6417C11.1328 14.5525 11.1886 14.4911 11.2333 14.4576C11.2556 14.4464 11.2779 14.4408 11.3002 14.4408C11.3337 14.4297 11.3616 14.4297 11.3839 14.4408C11.4063 14.4408 11.4286 14.4297 11.4509 14.4074C11.4732 14.385 11.49 14.3516 11.5011 14.3069C11.49 14.2958 11.4676 14.279 11.4342 14.2567C11.4007 14.2232 11.3783 14.2065 11.3672 14.2065C11.4453 14.24 11.6016 14.2344 11.8359 14.1897C12.0815 14.1339 12.2377 14.1395 12.3047 14.2065C12.4721 14.3292 12.5949 14.3181 12.673 14.173C12.673 14.1618 12.6563 14.1116 12.6228 14.0223C12.6004 13.9219 12.6004 13.8437 12.6228 13.7879C12.6786 14.0893 12.8404 14.1395 13.1083 13.9386C13.1417 13.9721 13.2254 14 13.3594 14.0223C13.5045 14.0446 13.6049 14.0725 13.6607 14.106C13.6942 14.1283 13.7333 14.1618 13.7779 14.2065C13.8225 14.24 13.8504 14.2623 13.8616 14.2734C13.8839 14.2846 13.9118 14.2846 13.9453 14.2734C13.99 14.2511 14.0402 14.2121 14.096 14.1562C14.2076 14.3125 14.2746 14.4464 14.2969 14.558C14.4196 15.0045 14.5257 15.25 14.615 15.2946C14.6931 15.3281 14.7545 15.3393 14.7991 15.3281C14.8438 15.317 14.8661 15.2667 14.8661 15.1775C14.8772 15.077 14.8772 14.9989 14.8661 14.9431C14.8661 14.8761 14.8605 14.8036 14.8493 14.7254L14.8326 14.5915C14.8326 14.4911 14.8326 14.3906 14.8326 14.2902L14.8158 14.1562C14.6484 14.1228 14.5424 14.0558 14.4978 13.9554C14.4643 13.8549 14.4754 13.7545 14.5313 13.654C14.5871 13.5424 14.6708 13.4364 14.7824 13.3359C14.7935 13.3248 14.8382 13.308 14.9163 13.2857C14.9944 13.2522 15.0781 13.2132 15.1674 13.1685C15.2679 13.1239 15.3404 13.0792 15.385 13.0346C15.6194 12.8225 15.7031 12.6272 15.6362 12.4487C15.7143 12.4487 15.7757 12.3984 15.8203 12.298C15.8092 12.298 15.7813 12.2812 15.7366 12.2478C15.692 12.2143 15.6473 12.1864 15.6027 12.1641C15.5692 12.1417 15.5469 12.1306 15.5357 12.1306C15.6362 12.0748 15.6473 11.9855 15.5692 11.8627C15.625 11.8292 15.6641 11.7679 15.6864 11.6786C15.7199 11.5893 15.7645 11.5335 15.8203 11.5112C15.9208 11.6451 16.0379 11.6562 16.1719 11.5446C16.2612 11.4554 16.2667 11.3661 16.1886 11.2768C16.2444 11.1987 16.356 11.1429 16.5234 11.1094C16.702 11.0647 16.808 11.0089 16.8415 10.942C16.9196 10.9643 16.9643 10.9531 16.9754 10.9085C16.9866 10.8638 16.9922 10.7969 16.9922 10.7076C16.9922 10.6183 17.0089 10.5513 17.0424 10.5067C17.0871 10.4509 17.1708 10.4007 17.2935 10.356C17.4163 10.3114 17.4888 10.2835 17.5112 10.2723L17.7958 10.0882C17.8292 10.0435 17.8292 10.0212 17.7958 10.0212C17.9967 10.0435 18.1696 9.98214 18.3147 9.83705C18.4263 9.71429 18.3929 9.60268 18.2143 9.50223C18.2478 9.43527 18.231 9.38504 18.1641 9.35156C18.0971 9.30692 18.0134 9.27344 17.9129 9.25112C17.9464 9.23995 18.0078 9.23995 18.0971 9.25112C18.1975 9.25112 18.2589 9.23995 18.2812 9.21763C18.4487 9.10603 18.4096 9.01674 18.1641 8.94978C17.9743 8.89397 17.7344 8.96094 17.4442 9.15067ZM14.7154 23.8326C17.0145 23.4308 18.9732 22.3761 20.5915 20.6685C20.558 20.635 20.4855 20.6127 20.3739 20.6016C20.2734 20.5792 20.2065 20.5569 20.173 20.5346C19.9721 20.4565 19.8382 20.4118 19.7712 20.4007C19.7824 20.3225 19.7656 20.25 19.721 20.183C19.6875 20.1161 19.6429 20.0658 19.5871 20.0324C19.5424 19.9989 19.4754 19.9542 19.3862 19.8984C19.2969 19.8426 19.2355 19.8036 19.202 19.7812C19.1797 19.7589 19.1406 19.7254 19.0848 19.6808C19.029 19.6362 18.99 19.6083 18.9676 19.5971C18.9453 19.5748 18.9007 19.5469 18.8337 19.5134C18.7779 19.4799 18.7333 19.4687 18.6998 19.4799C18.6663 19.4911 18.6105 19.4967 18.5324 19.4967L18.4821 19.5134C18.4487 19.5246 18.4152 19.5413 18.3817 19.5636C18.3594 19.5748 18.3315 19.5915 18.298 19.6138C18.2645 19.625 18.2422 19.6417 18.231 19.6641C18.2199 19.6752 18.2199 19.6864 18.231 19.6975C17.9967 19.5078 17.7958 19.385 17.6283 19.3292C17.5725 19.3181 17.5112 19.2902 17.4442 19.2455C17.3772 19.1897 17.3158 19.1507 17.26 19.1283C17.2154 19.0949 17.1596 19.0837 17.0926 19.0949C17.0368 19.106 16.9754 19.1451 16.9085 19.2121C16.8527 19.2679 16.8192 19.3516 16.808 19.4632C16.7969 19.5748 16.7857 19.6473 16.7746 19.6808C16.6964 19.625 16.6964 19.5301 16.7746 19.3962C16.8527 19.2511 16.8638 19.1451 16.808 19.0781C16.7746 19.0112 16.7132 18.9888 16.6239 19.0112C16.5458 19.0223 16.4788 19.0446 16.423 19.0781C16.3783 19.1116 16.317 19.1618 16.2388 19.2288C16.1607 19.2846 16.1105 19.3181 16.0882 19.3292C16.0658 19.3404 16.0156 19.3739 15.9375 19.4297C15.8705 19.4743 15.8259 19.5134 15.8036 19.5469C15.7701 19.5915 15.7366 19.6585 15.7031 19.7478C15.6696 19.8371 15.6417 19.8984 15.6194 19.9319C15.5971 19.8873 15.5301 19.8538 15.4185 19.8315C15.3181 19.798 15.2679 19.7645 15.2679 19.731C15.2902 19.8426 15.3125 20.0379 15.3348 20.317C15.3571 20.596 15.385 20.808 15.4185 20.9531C15.4967 21.2991 15.4297 21.567 15.2176 21.7567C14.9163 22.0357 14.7545 22.2589 14.7321 22.4263C14.6875 22.6719 14.7545 22.817 14.933 22.8616C14.933 22.9397 14.8884 23.0569 14.7991 23.2132C14.7098 23.3583 14.6708 23.4754 14.6819 23.5647C14.6819 23.6317 14.6931 23.721 14.7154 23.8326Z" fill="#FF5C18"/>
</svg>
