<svg width="24" height="24" viewBox="0 0 24 24" fill="none" xmlns="http://www.w3.org/2000/svg">
<path d="M2.18182 0C0.976364 0 0 0.976364 0 2.18182V21.8182C0 23.0236 0.976364 24 2.18182 24H21.8182C23.0236 24 24 23.0236 24 21.8182V2.18182C24 0.976364 23.0236 0 21.8182 0H2.18182ZM2.18182 2.18182H21.8182V8.72727H18.2621C16.8819 6.75045 14.5938 5.45455 12 5.45455C9.40619 5.45455 7.11807 6.75045 5.73793 8.72727H2.18182V2.18182ZM18.5455 4.36364V6.54545H20.7273V4.36364H18.5455ZM12 7.63636C15.0076 7.63636 17.4545 10.0833 17.4545 13.0909C17.4545 16.0985 15.0076 18.5455 12 18.5455C8.99236 18.5455 6.54545 16.0985 6.54545 13.0909C6.54545 10.0833 8.99236 7.63636 12 7.63636ZM12 9.81818C11.4949 9.81818 11.0235 9.94231 10.5959 10.1463C10.789 10.3427 10.9091 10.6113 10.9091 10.9091C10.9091 11.5113 10.4204 12 9.81818 12C9.52036 12 9.25176 11.8799 9.0554 11.6868C8.8514 12.1144 8.72727 12.5858 8.72727 13.0909C8.72727 14.8985 10.1924 16.3636 12 16.3636C13.8076 16.3636 15.2727 14.8985 15.2727 13.0909C15.2727 11.2833 13.8076 9.81818 12 9.81818Z" fill="#FF5C18"/>
</svg>
